<?xml version="1.0" encoding="UTF-8" standalone="no"?>
<svg version="1.1" xmlns="http://www.w3.org/2000/svg" xmlns:xlink="http://www.w3.org/1999/xlink" xmlns:sketch="http://www.bohemiancoding.com/sketch/ns">

	<symbol viewBox="0 0 92 92" id="svg-document-edit">
        <path d="M86.1,9.2L79,1.9C78.4,1.3,77.6,1,76.8,1h0c-0.8,0-1.6,0.3-2.1,0.9L32.8,44.4c-0.3,0.3-0.5,0.6-0.7,1
        l-4.7,11.9c-0.4,1.1-0.2,2.4,0.7,3.2c0.6,0.6,1.3,0.9,2.1,0.9c0.4,0,0.7-0.1,1.1-0.2l11.8-4.7c0.4-0.2,0.7-0.4,1-0.7l41.9-42.5
        C87.3,12.2,87.3,10.3,86.1,9.2z M40.4,51.2l-4.8,1.9l1.9-4.9L76.8,8.3l3,3L40.4,51.2z M71,47.6V88c0,2.2-2,4-4.2,4H10
        c-2.2,0-4-1.8-4-4V11.8C6,9.6,7.8,8,10,8h41.6c2.2,0,4,1.8,4,4s-1.8,4-4,4H14v68h49V47.6c0-2.2,1.8-4,4-4S71,45.4,71,47.6z"/>
	</symbol>

        <symbol viewBox="0 0 612 612" id="svg-delivery-truck">
        <path d="M21.474,377.522V117.138c0-14.469,11.729-26.199,26.199-26.199h260.25c14.469,0,26.198,11.73,26.198,26.199v260.385
        c0,4.823-3.909,8.733-8.733,8.733H30.207C25.383,386.256,21.474,382.346,21.474,377.522z M231.634,466.724
        c0,30.01-24.329,54.338-54.338,54.338c-30.009,0-54.338-24.328-54.338-54.338c0-30.011,24.329-54.338,54.338-54.338
        C207.305,412.386,231.634,436.713,231.634,466.724z M204.464,466.724c0-15.005-12.164-27.169-27.169-27.169
        s-27.17,12.164-27.17,27.169s12.165,27.17,27.17,27.17S204.464,481.729,204.464,466.724z M130.495,412.385H8.733
        c-4.823,0-8.733,3.91-8.733,8.733v26.495c0,4.823,3.91,8.733,8.733,8.733h97.598C108.879,438.862,117.704,423.418,130.495,412.385z
                M515.938,466.724c0,30.01-24.329,54.338-54.338,54.338c-30.01,0-54.338-24.328-54.338-54.338
        c0-30.011,24.328-54.338,54.338-54.338C491.609,412.385,515.938,436.713,515.938,466.724z M488.77,466.724
        c0-15.005-12.165-27.169-27.17-27.169c-15.006,0-27.169,12.164-27.169,27.169s12.164,27.17,27.169,27.17
        S488.77,481.729,488.77,466.724z M612,421.118v26.495c0,4.823-3.91,8.733-8.733,8.733h-70.704
        c-5.057-34.683-34.906-61.427-70.961-61.427c-36.062,0-65.912,26.745-70.969,61.427H248.261
        c-2.549-17.483-11.373-32.928-24.164-43.961h134.994V162.594c0-9.646,7.82-17.466,17.466-17.466h82.445
        c23.214,0,44.911,11.531,57.9,30.77l53.15,78.721c7.796,11.547,11.962,25.161,11.962,39.094v118.672h21.253
        C608.09,412.385,612,416.295,612,421.118z M523.408,256.635l-42.501-60.393c-1.636-2.324-4.3-3.707-7.142-3.707H407.47
        c-4.822,0-8.733,3.91-8.733,8.733v60.393c0,4.824,3.91,8.733,8.733,8.733h108.798C523.342,270.394,527.48,262.421,523.408,256.635z
        "/>
	</symbol>

        <symbol viewBox="0 0 446.843 446.843" id="svg-cart-1">
        <path d="M444.09,93.103c-2.698-3.699-7.006-5.888-11.584-5.888H109.92c-0.625,0-1.249,0.038-1.85,0.119l-13.276-38.27
        c-1.376-3.958-4.406-7.113-8.3-8.646L19.586,14.134c-7.374-2.887-15.695,0.735-18.591,8.1c-2.891,7.369,0.73,15.695,8.1,18.591
        l60.768,23.872l74.381,214.399c-3.283,1.144-6.065,3.663-7.332,7.187l-21.506,59.739c-1.318,3.663-0.775,7.733,1.468,10.916
        c2.24,3.183,5.883,5.078,9.773,5.078h11.044c-6.844,7.616-11.044,17.646-11.044,28.675c0,23.718,19.298,43.012,43.012,43.012
        s43.012-19.294,43.012-43.012c0-11.029-4.2-21.059-11.044-28.675h93.776c-6.847,7.616-11.048,17.646-11.048,28.675
        c0,23.718,19.294,43.012,43.013,43.012c23.718,0,43.012-19.294,43.012-43.012c0-11.029-4.2-21.059-11.043-28.675h13.433
        c6.599,0,11.947-5.349,11.947-11.948c0-6.599-5.349-11.947-11.947-11.947H143.647l13.319-36.996
        c1.72,0.724,3.578,1.152,5.523,1.152h210.278c6.234,0,11.751-4.027,13.65-9.959l59.739-186.387
        C447.557,101.567,446.788,96.802,444.09,93.103z M169.659,409.807c-10.543,0-19.116-8.573-19.116-19.116
        s8.573-19.117,19.116-19.117s19.116,8.574,19.116,19.117S180.202,409.807,169.659,409.807z M327.367,409.807
        c-10.543,0-19.117-8.573-19.117-19.116s8.574-19.117,19.117-19.117c10.542,0,19.116,8.574,19.116,19.117
        S337.909,409.807,327.367,409.807z M402.52,148.149h-73.161V115.89h83.499L402.52,148.149z M381.453,213.861h-52.094v-37.038
        h63.967L381.453,213.861z M234.571,213.861v-37.038h66.113v37.038H234.571z M300.684,242.538v31.064h-66.113v-31.064H300.684z
                M139.115,176.823h66.784v37.038h-53.933L139.115,176.823z M234.571,148.149V115.89h66.113v32.259H234.571z M205.898,115.89v32.259
        h-76.734l-11.191-32.259H205.898z M161.916,242.538h43.982v31.064h-33.206L161.916,242.538z M329.359,273.603v-31.064h42.909
        l-9.955,31.064H329.359z
        "/>
        </symbol>

        <symbol viewBox="0 0 60 60" id="svg-calculator">
        <path d="M50.586,0H9.414C7.807,0,6.5,1.308,6.5,2.914v54.172C6.5,58.692,7.807,60,9.414,60h41.172c1.607,0,2.914-1.308,2.914-2.914
        V2.914C53.5,1.308,52.193,0,50.586,0z M51.5,57.086C51.5,57.59,51.09,58,50.586,58H9.414C8.91,58,8.5,57.59,8.5,57.086V2.914
        C8.5,2.41,8.91,2,9.414,2h41.172C51.09,2,51.5,2.41,51.5,2.914V57.086z"/>
	<path d="M11.5,55h11V44h-11V55z M13.5,46h7v7h-7V46z"/>
	<path d="M24.5,55h11V44h-11V55z M26.5,46h7v7h-7V46z"/>
	<path d="M37.5,55h11V31h-11V55z M39.5,33h7v20h-7V33z"/>
	<path d="M11.5,42h11V31h-11V42z M13.5,33h7v7h-7V33z"/>
	<path d="M24.5,42h11V31h-11V42z M26.5,33h7v7h-7V33z"/>
	<path d="M11.5,29h11V18h-11V29z M13.5,20h7v7h-7V20z"/>
	<path d="M24.5,29h11V18h-11V29z M26.5,20h7v7h-7V20z"/>
	<path d="M37.5,29h11V18h-11V29z M39.5,20h7v7h-7V20z"/>
	<path d="M11.5,15h37V5h-37V15z M13.5,7h33v6h-33V7z"/>
	</symbol>

        <symbol viewBox="0 0 334.877 334.877" id="svg-wallet">
        <path d="M333.196,155.999h-16.067V82.09c0-17.719-14.415-32.134-32.134-32.134h-21.761L240.965,9.917
        C237.571,3.798,231.112,0,224.107,0c-3.265,0-6.504,0.842-9.364,2.429l-85.464,47.526H33.815
        c-17.719,0-32.134,14.415-32.134,32.134v220.653c0,17.719,14.415,32.134,32.134,32.134h251.18
        c17.719,0,32.134-14.415,32.134-32.134v-64.802h16.067V155.999z M284.995,62.809c9.897,0,17.982,7.519,19.068,17.14h-24.152
        l-9.525-17.14H284.995z M220.996,13.663c3.014-1.69,7.07-0.508,8.734,2.494l35.476,63.786H101.798L220.996,13.663z
                M304.275,302.742c0,10.63-8.651,19.281-19.281,19.281H33.815c-10.63,0-19.281-8.651-19.281-19.281V82.09
        c0-10.63,8.651-19.281,19.281-19.281h72.353L75.345,79.95H37.832c-3.554,0-6.427,2.879-6.427,6.427s2.873,6.427,6.427,6.427h14.396
        h234.83h17.217v63.201h-46.999c-21.826,0-39.589,17.764-39.589,39.589v2.764c0,21.826,17.764,39.589,39.589,39.589h46.999V302.742z
                M320.342,225.087h-3.213h-59.853c-14.743,0-26.736-11.992-26.736-26.736v-2.764c0-14.743,11.992-26.736,26.736-26.736h59.853
        h3.213V225.087z M276.961,197.497c0,7.841-6.35,14.19-14.19,14.19c-7.841,0-14.19-6.35-14.19-14.19s6.35-14.19,14.19-14.19
        C270.612,183.306,276.961,189.662,276.961,197.497z"/>
	</symbol>

        <symbol viewBox="0 0 297 297" id="svg-profil-1">
        <path d="M148.51,117.216c32.317,0,58.608-26.291,58.608-58.608S180.827,0,148.51,0c-32.317,0-58.608,26.291-58.608,58.608   S116.193,117.216,148.51,117.216z"/>
        <path d="m227.154,145.618c-0.025-0.008-0.073-0.026-0.098-0.032-7.631-1.864-30.999-5.133-30.999-5.133-2.638-0.812-5.457,0.585-6.406,3.188l-35.174,96.509c-2.029,5.567-9.903,5.567-11.932,0l-35.174-96.509c-0.766-2.102-2.75-3.42-4.876-3.42-0.504,0-24.531,3.369-32.53,5.358-21.858,5.435-35.645,26.929-35.645,49.329v80.302c0,12.034 9.756,21.79 21.79,21.79h184.782c12.034,0 21.79-9.756 21.79-21.79v-80.569c-0.001-22.303-14.328-42.096-35.528-49.023z"/>
        <path d="m161.775,138.613c-1.404-1.53-3.456-2.299-5.532-2.299h-15.485c-2.076,0-4.129,0.77-5.532,2.299-2.173,2.368-2.489,5.789-0.946,8.462l8.278,12.479-3.875,32.69 7.631,20.3c0.744,2.042 3.631,2.042 4.375,0l7.631-20.3-3.875-32.69 8.278-12.479c1.541-2.673 1.225-6.094-0.948-8.462z"/>
	</symbol>

        <symbol viewBox="0 0 377.283 377.283" id="svg-history">
        <rect x="97.183" y="226.232" width="181.32" height="7.501"/>
        <rect x="97.183" y="247.347" width="181.32" height="7.501"/>
        <path d="M259.021,41.953h-28.426C230.595,18.785,211.809,0,188.641,0s-41.953,18.785-41.953,41.953h-30.024v49.178h142.356V41.953
                z M138.45,74.424c-4.413,0-7.992-3.579-7.992-7.992s3.579-7.992,7.992-7.992c4.413,0,7.992,3.579,7.992,7.992
                C146.437,70.845,142.863,74.424,138.45,74.424z M170.737,41.953c0-9.871,8.033-17.905,17.905-17.905
                c9.871,0,17.905,8.033,17.905,17.905H170.737z M237.844,74.424c-4.413,0-7.992-3.579-7.992-7.992s3.579-7.992,7.992-7.992
                s7.992,3.579,7.992,7.992S242.258,74.424,237.844,74.424z"/>
        <rect x="97.183" y="268.462" width="181.32" height="7.501"/>
        <rect x="97.183" y="141.773" width="181.32" height="7.501"/>
        <rect x="97.183" y="120.658" width="181.32" height="7.501"/>
        <polygon points="271.903,58.307 271.903,73.835 306.171,73.835 306.171,302.331 247.296,302.331 247.296,361.206 255.314,353.188 
                255.314,310.344 298.158,310.344 298.813,309.688 247.301,361.206 247.296,361.206 71.112,361.206 71.112,73.835 105.38,73.835 
                105.38,58.307 54.968,58.307 54.968,377.283 320.712,377.283 320.712,73.835 322.314,73.835 322.314,58.307 		"/>
        <rect x="97.183" y="205.117" width="181.32" height="7.501"/>
        <rect x="97.183" y="184.003" width="181.32" height="7.501"/>
        <rect x="97.183" y="162.888" width="181.32" height="7.501"/>
	</symbol>

        <symbol viewBox="0 0 509.054 509.054" id="svg-list">
        <path d="M75.377,0H45.111L6.284,36.258l20.268,21.7c7.994-7.041,12.753-12.185,14.277-15.417H41.4v3.427
                c0,7.613-0.05,19.126-0.144,34.545c-0.096,15.417-0.144,27.027-0.144,34.831H10.562v28.266h95.646v-28.266H75.377V0z"/>
        <path d="M505.489,73.232c-1.816-1.809-3.952-2.712-6.43-2.712H151.886c-2.474,0-4.611,0.903-6.423,2.712
                c-1.805,1.809-2.708,3.949-2.708,6.424v54.817c0,2.475,0.9,4.615,2.708,6.424c1.812,1.807,3.949,2.712,6.423,2.712h347.176
                c2.478,0,4.617-0.905,6.427-2.712c1.808-1.809,2.707-3.949,2.707-6.424V79.656C508.2,77.182,507.297,75.041,505.489,73.232z"/>
        <path d="M73.664,420.834l27.123-32.833v-25.125H5.712v43.396h30.262V391.14c3.046,0,7.661-0.086,13.85-0.277
                c6.182-0.195,10.8-0.288,13.846-0.288v0.288c-3.621,3.426-7.139,7.087-10.566,10.992c-3.427,3.904-7.471,9.041-12.135,15.409
                c-4.661,6.379-7.751,10.521-9.275,12.423l7.421,15.988c19.985-1.526,29.979,3.802,29.979,15.988c0,5.328-2.046,9.373-6.139,12.128
                c-4.089,2.766-8.897,4.145-14.417,4.145c-10.848,0-20.937-4.281-30.262-12.85L1.998,490.211
                c12.562,12.562,28.931,18.843,49.109,18.843c15.416,0,28.31-4.374,38.688-13.131c10.373-8.758,15.559-20.749,15.559-35.974
                c0-9.709-2.859-18.083-8.562-25.129C91.08,427.784,83.375,423.116,73.664,420.834z"/>
        <path d="M75.942,298.066h-36.26c0.193-4.76,3.571-9.756,10.138-14.985c6.567-5.232,13.747-10.037,21.555-14.417
                c7.801-4.381,14.939-10.514,21.412-18.412c6.472-7.9,9.707-16.608,9.707-26.125c0-13.515-4.757-24.222-14.273-32.121
                c-9.514-7.898-21.223-11.849-35.117-11.849c-11.042,0-21.083,2.712-30.124,8.138c-9.04,5.424-15.843,12.991-20.412,22.701
                l24.27,16.844c6.663-11.042,14.371-16.56,23.125-16.56c4.762,0,8.52,1.285,11.281,3.854c2.757,2.574,4.141,6.235,4.141,10.994
                c0,4.377-2.238,8.66-6.711,12.847c-4.475,4.187-9.851,8.326-16.134,12.419c-6.28,4.093-12.563,8.615-18.842,13.563
                c-6.28,4.949-11.661,11.417-16.134,19.411c-4.471,7.994-6.708,16.847-6.708,26.553c0,3.425,0.571,8.565,1.711,15.417H105.92
                v-45.402v-0.004H75.942V298.066z"/>
        <path d="M499.06,362.876H151.886c-2.663,0-4.853,0.858-6.563,2.569c-1.713,1.712-2.568,3.901-2.568,6.564v54.819
                c0,2.475,0.9,4.616,2.708,6.423c1.812,1.808,3.949,2.711,6.423,2.711h347.176c2.478,0,4.617-0.896,6.427-2.711
                c1.808-1.807,2.707-3.948,2.707-6.423V372.01c0-2.471-0.906-4.613-2.707-6.42C503.676,363.782,501.537,362.876,499.06,362.876z"/>
        <path d="M499.06,216.698H151.886c-2.663,0-4.853,0.855-6.563,2.568c-1.713,1.713-2.568,3.903-2.568,6.567v54.818
                c0,2.475,0.9,4.613,2.708,6.424c1.812,1.81,3.949,2.714,6.423,2.714h347.176c2.478,0,4.617-0.904,6.427-2.714
                c1.808-1.811,2.707-3.949,2.707-6.424v-54.818c0-2.474-0.906-4.615-2.707-6.423C503.676,217.602,501.537,216.698,499.06,216.698z"
                />
	</symbol>

        <symbol viewBox="0 0 495.401 495.401" id="svg-cart-2">
        <path d="M185.049,381.529c-22.852,0-41.379,18.517-41.379,41.36c0,22.861,18.527,41.379,41.379,41.379
                c22.843,0,41.37-18.518,41.37-41.379C226.419,400.048,207.892,381.529,185.049,381.529z"/>
        <path d="M365.622,381.529c-22.861,0-41.379,18.517-41.379,41.36c0,22.861,18.518,41.379,41.379,41.379
                c22.844,0,41.38-18.518,41.38-41.379C407.002,400.048,388.466,381.529,365.622,381.529z"/>
        <path d="M469.558,154.735l-229.192-0.019c-11.46,0-20.75,9.29-20.75,20.75s9.29,20.75,20.75,20.75
                l202.778-0.01l-12.864,43.533l-206.164,0.044c-10.631,0-19.25,8.619-19.25,19.25c0,10.632,8.619,19.25,19.25,19.25l194.768,0.076
                l-12.093,40.715H174.455L159.04,196.188L144.321,76.471c-1.198-9.473-8.066-17.251-17.319-19.611l-98-25
                C16.56,28.684,3.901,36.199,0.727,48.641s4.339,25.102,16.781,28.275l82.667,21.089l32.192,241.591c0,0,1.095,28.183,26.69,28.183
                h256.81c21.518,0,25.678-22.438,25.678-22.438l50.896-151.159C492.441,194.162,507.532,154.735,469.558,154.735z"/>
	</symbol>

        <symbol viewBox="0 0 511.626 511.626" id="svg-envelope">
        <path d="M49.106,178.729c6.472,4.567,25.981,18.131,58.528,40.685c32.548,22.554,57.482,39.92,74.803,52.099
                c1.903,1.335,5.946,4.237,12.131,8.71c6.186,4.476,11.326,8.093,15.416,10.852c4.093,2.758,9.041,5.852,14.849,9.277
                c5.806,3.422,11.279,5.996,16.418,7.7c5.14,1.718,9.898,2.569,14.275,2.569h0.287h0.288c4.377,0,9.137-0.852,14.277-2.569
                c5.137-1.704,10.615-4.281,16.416-7.7c5.804-3.429,10.752-6.52,14.845-9.277c4.093-2.759,9.229-6.376,15.417-10.852
                c6.184-4.477,10.232-7.375,12.135-8.71c17.508-12.179,62.051-43.11,133.615-92.79c13.894-9.703,25.502-21.411,34.827-35.116
                c9.332-13.699,13.993-28.07,13.993-43.105c0-12.564-4.523-23.319-13.565-32.264c-9.041-8.947-19.749-13.418-32.117-13.418H45.679
                c-14.655,0-25.933,4.948-33.832,14.844C3.949,79.562,0,91.934,0,106.779c0,11.991,5.236,24.985,15.703,38.974
                C26.169,159.743,37.307,170.736,49.106,178.729z"/>
        <path d="M483.072,209.275c-62.424,42.251-109.824,75.087-142.177,98.501c-10.849,7.991-19.65,14.229-26.409,18.699
                c-6.759,4.473-15.748,9.041-26.98,13.702c-11.228,4.668-21.692,6.995-31.401,6.995h-0.291h-0.287
                c-9.707,0-20.177-2.327-31.405-6.995c-11.228-4.661-20.223-9.229-26.98-13.702c-6.755-4.47-15.559-10.708-26.407-18.699
                c-25.697-18.842-72.995-51.68-141.896-98.501C17.987,202.047,8.375,193.762,0,184.437v226.685c0,12.57,4.471,23.319,13.418,32.265
                c8.945,8.949,19.701,13.422,32.264,13.422h420.266c12.56,0,23.315-4.473,32.261-13.422c8.949-8.949,13.418-19.694,13.418-32.265
                V184.437C503.441,193.569,493.927,201.854,483.072,209.275z"/>
	</symbol>

        <symbol viewBox="0 0 299.995 299.995" id="svg-contacts">
        <path d="M149.992,0.001C67.156,0.001,0,67.159,0,149.998c0,82.837,67.156,149.997,149.992,149.997
                c82.842,0,150.003-67.161,150.003-149.997C299.995,67.159,232.834,0.001,149.992,0.001z M210.947,217.132v10.374
                c0,5.729-4.645,10.374-10.374,10.374h-10.374h-57.256H96.829c-11.458,0-20.749-9.29-20.749-20.749V86.592
                c0-11.458,9.29-20.749,20.749-20.749h36.113h57.256h10.374c5.729,0,10.374,4.645,10.374,10.374v10.375h0.001V217.132z
                        M231.695,86.592v130.54v10.374c0,5.729-4.645,10.374-10.374,10.374h-2.806c1.774-3.055,2.806-6.593,2.806-10.374v-10.374V86.592
                V76.219c0-3.781-1.032-7.319-2.806-10.374h2.806c5.729,0,10.374,4.645,10.374,10.374V86.592z"/>
        <path d="M175.591,165.517c0,0-3.909-4.692-8.237-1.455c-3.226,2.412-9.023,7.776-10.416,9.078c0,0-9.69-5.166-15.424-9.884
                c-8.494-6.985-14.174-15.608-17.151-20.513l-2.223-4.191c0.775-0.835,6.71-7.189,9.277-10.639
                c3.232-4.326-1.452-8.235-1.452-8.235s-13.183-13.183-16.184-15.798c-3.003-2.622-6.461-1.167-6.461-1.167
                c-6.315,4.082-12.859,7.628-13.248,24.686c-0.013,15.969,12.109,32.438,25.215,45.188c13.131,14.402,31.162,28.833,48.588,28.817
                c17.055-0.384,20.598-6.93,24.678-13.245c0,0,1.46-3.455-1.159-6.458C188.774,178.693,175.591,165.517,175.591,165.517z"/>
	</symbol>

        <symbol viewBox="0 0 487.222 487.222" id="svg-favorite">
        <path d="M486.554,186.811c-1.6-4.9-5.8-8.4-10.9-9.2l-152-21.6l-68.4-137.5c-2.3-4.6-7-7.5-12.1-7.5l0,0c-5.1,0-9.8,2.9-12.1,7.6
		l-67.5,137.9l-152,22.6c-5.1,0.8-9.3,4.3-10.9,9.2s-0.2,10.3,3.5,13.8l110.3,106.9l-25.5,151.4c-0.9,5.1,1.2,10.2,5.4,13.2
		c2.3,1.7,5.1,2.6,7.9,2.6c2.2,0,4.3-0.5,6.3-1.6l135.7-71.9l136.1,71.1c2,1,4.1,1.5,6.2,1.5l0,0c7.4,0,13.5-6.1,13.5-13.5
		c0-1.1-0.1-2.1-0.4-3.1l-26.3-150.5l109.6-107.5C486.854,197.111,488.154,191.711,486.554,186.811z M349.554,293.911
		c-3.2,3.1-4.6,7.6-3.8,12l22.9,131.3l-118.2-61.7c-3.9-2.1-8.6-2-12.6,0l-117.8,62.4l22.1-131.5c0.7-4.4-0.7-8.8-3.9-11.9
		l-95.6-92.8l131.9-19.6c4.4-0.7,8.2-3.4,10.1-7.4l58.6-119.7l59.4,119.4c2,4,5.8,6.7,10.2,7.4l132,18.8L349.554,293.911z"/>
	</symbol>

        <symbol viewBox="0 0 456.795 456.795" id="svg-viewed">
        <path d="M448.947,218.475c-0.922-1.168-23.055-28.933-61-56.81c-50.705-37.253-105.877-56.944-159.551-56.944
                c-53.672,0-108.844,19.691-159.551,56.944c-37.944,27.876-60.077,55.642-61,56.81L0,228.397l7.846,9.923
                c0.923,1.168,23.056,28.934,61,56.811c50.707,37.252,105.879,56.943,159.551,56.943c53.673,0,108.845-19.691,159.55-56.943
                c37.945-27.877,60.078-55.643,61-56.811l7.848-9.923L448.947,218.475z M228.396,315.039c-47.774,0-86.642-38.867-86.642-86.642
                c0-7.485,0.954-14.751,2.747-21.684l-19.781-3.329c-1.938,8.025-2.966,16.401-2.966,25.013c0,30.86,13.182,58.696,34.204,78.187
                c-27.061-9.996-50.072-24.023-67.439-36.709c-21.516-15.715-37.641-31.609-46.834-41.478c9.197-9.872,25.32-25.764,46.834-41.478
                c17.367-12.686,40.379-26.713,67.439-36.71l13.27,14.958c15.498-14.512,36.312-23.412,59.168-23.412
                c47.774,0,86.641,38.867,86.641,86.642C315.037,276.172,276.17,315.039,228.396,315.039z M368.273,269.875
                c-17.369,12.686-40.379,26.713-67.439,36.709c21.021-19.49,34.203-47.326,34.203-78.188s-13.182-58.697-34.203-78.188
                c27.061,9.997,50.07,24.024,67.439,36.71c21.516,15.715,37.641,31.609,46.834,41.477
                C405.91,238.269,389.787,254.162,368.273,269.875z"/>
        <path d="M173.261,211.555c-1.626,5.329-2.507,10.982-2.507,16.843c0,31.834,25.807,57.642,57.642,57.642
                c31.834,0,57.641-25.807,57.641-57.642s-25.807-57.642-57.641-57.642c-15.506,0-29.571,6.134-39.932,16.094l28.432,32.048
                L173.261,211.555z"/>
	</symbol>

        <symbol viewBox="0 0 97.668 97.667" id="svg-subscribe">
        <path d="M12.639,72.389C5.67,72.389,0,78.059,0,85.028s5.67,12.638,12.639,12.638c6.969,0,12.639-5.669,12.639-12.638
                S19.607,72.389,12.639,72.389z"/>
        <path d="M2.102,36.384c-0.545-0.013-1.066,0.184-1.457,0.562c-0.39,0.377-0.609,0.896-0.609,1.438v16.217
                c0,1.068,0.841,1.948,1.909,1.998c21.334,0.973,38.156,17.795,39.129,39.129c0.049,1.067,0.929,1.908,1.998,1.908H59.29
                c0.542,0,1.062-0.22,1.438-0.608s0.578-0.916,0.562-1.457c-0.517-15.548-6.888-30.197-17.938-41.248
                C32.3,43.272,17.651,36.902,2.102,36.384z"/>
        <path d="M69.053,28.62C51.119,10.688,27.334,0.524,2.076,0.004c-0.54-0.026-1.058,0.194-1.44,0.571
                C0.252,0.952,0.035,1.466,0.035,2.003v16.208c0,1.085,0.865,1.972,1.95,2c40.601,1.02,74.458,34.878,75.476,75.475
                c0.025,1.085,0.914,1.949,1.999,1.949h16.208c0.537,0,1.053-0.216,1.43-0.601c0.375-0.384,0.582-0.903,0.57-1.441
                C97.146,70.334,86.982,46.548,69.053,28.62z"/>
	</symbol>

        <!-- old sprite -->
        <symbol viewBox="0 0 386.257 386.257" id="svg-arrow-filled-down">
        <polygon points="0,96.879 193.129,289.379 386.257,96.879 "/>
	</symbol>

        <symbol viewBox="0 0 386.257 386.257" id="svg-arrow-filled-up">
        <polygon points="193.129,96.879 0,289.379 386.257,289.379 "/>
	</symbol>

        <symbol viewBox="0 0 386.258 386.258" id="svg-arrow-filled-right">
        <polygon points="96.879,0 96.879,386.258 289.379,193.129 "/>
	</symbol>

        <symbol viewBox="0 0 386.257 386.257" id="svg-arrow-filled-left">
        <polygon points="289.379,0 289.379,386.258 96.879,193.129 "/>
	</symbol>
        
        <symbol viewBox="0 0 64 64" id="svg-arrow-linear-up">
        <path d="M3.352,48.296l28.56-28.328l28.58,28.347c0.397,0.394,0.917,0.59,1.436,0.59c0.52,0,1.04-0.196,1.436-0.59   c0.793-0.787,0.793-2.062,0-2.849l-29.98-29.735c-0.2-0.2-0.494-0.375-0.757-0.475c-0.75-0.282-1.597-0.107-2.166,0.456   L0.479,45.447c-0.793,0.787-0.793,2.062,0,2.849C1.273,49.082,2.558,49.082,3.352,48.296z"/>
	</symbol>

        <symbol viewBox="0 0 129 129" id="svg-arrow-linear-down">
        <path d="m121.3,34.6c-1.6-1.6-4.2-1.6-5.8,0l-51,51.1-51.1-51.1c-1.6-1.6-4.2-1.6-5.8,0-1.6,1.6-1.6,4.2 0,5.8l53.9,53.9c0.8,0.8 1.8,1.2 2.9,1.2 1,0 2.1-0.4 2.9-1.2l53.9-53.9c1.7-1.6 1.7-4.2 0.1-5.8z"/>
	</symbol>
        
        <symbol viewBox="0 0 129 129" id="svg-arrow-linear-right">
        <path d="m40.4,121.3c-0.8,0.8-1.8,1.2-2.9,1.2s-2.1-0.4-2.9-1.2c-1.6-1.6-1.6-4.2 0-5.8l51-51-51-51c-1.6-1.6-1.6-4.2 0-5.8 1.6-1.6 4.2-1.6 5.8,0l53.9,53.9c1.6,1.6 1.6,4.2 0,5.8l-53.9,53.9z"/>
	</symbol>

        <symbol viewBox="0 0 129 129" id="svg-arrow-linear-left">
        <path d="m88.6,121.3c0.8,0.8 1.8,1.2 2.9,1.2s2.1-0.4 2.9-1.2c1.6-1.6 1.6-4.2 0-5.8l-51-51 51-51c1.6-1.6 1.6-4.2 0-5.8s-4.2-1.6-5.8,0l-54,53.9c-1.6,1.6-1.6,4.2 0,5.8l54,53.9z"/>
	</symbol>

        <symbol viewBox="0 0 535.5 535.5" id="svg-lock">
        <path d="M420.75,178.5h-25.5v-51c0-71.4-56.1-127.5-127.5-127.5c-71.4,0-127.5,56.1-127.5,127.5v51h-25.5c-28.05,0-51,22.95-51,51
                v255c0,28.05,22.95,51,51,51h306c28.05,0,51-22.95,51-51v-255C471.75,201.45,448.8,178.5,420.75,178.5z M267.75,408
                c-28.05,0-51-22.95-51-51s22.95-51,51-51s51,22.95,51,51S295.8,408,267.75,408z M346.8,178.5H188.7v-51
                c0-43.35,35.7-79.05,79.05-79.05c43.35,0,79.05,35.7,79.05,79.05V178.5z"/>
	</symbol>

        <symbol viewBox="0 0 330 330" id="svg-logout">
        <path d="M245.608,84.392c-5.856-5.857-15.355-5.858-21.213-0.001c-5.857,5.858-5.858,15.355,0,21.213L268.789,150H85.002
		c-8.284,0-15,6.716-15,15s6.716,15,15,15h183.785l-44.392,44.392c-5.858,5.858-5.858,15.355,0,21.213
		c2.929,2.929,6.768,4.393,10.607,4.393c3.839,0,7.678-1.464,10.606-4.393l69.998-69.998c5.858-5.857,5.858-15.355,0-21.213
		L245.608,84.392z"/>
	<path d="M155,330c8.284,0,15-6.716,15-15s-6.716-15-15-15H40V30h115c8.284,0,15-6.716,15-15s-6.716-15-15-15H25
		c-8.284,0-15,6.716-15,15v300c0,8.284,6.716,15,15,15H155z"/>
	</symbol>

        <symbol viewBox="0 0 16.877 16.877" id="svg-handphone">
        <path d="M5.301,5.587L1.404,1.688c0.503-0.503,1.005-1.007,1.509-1.511C3.146-0.056,3.522-0.06,3.756,0.17l3.036,3.039
		c0.232,0.232,0.232,0.614-0.003,0.848L6.124,4.721L5.505,5.34C5.429,5.417,5.36,5.499,5.301,5.587z M8.507,11.938
		c-0.638-0.549-1.25-1.132-1.844-1.725C6.07,9.616,5.489,9.006,4.939,8.365c-0.45-0.52-0.538-1.273-0.303-1.907L0.636,2.457
		c-0.931,0.957-0.812,3.33,0.208,5.415c0.438,0.902,1.006,1.716,1.593,2.49c0.586,0.768,1.229,1.494,1.906,2.176
		c0.679,0.681,1.401,1.327,2.171,1.913c0.774,0.589,1.59,1.153,2.486,1.59c2.088,1.019,4.462,1.131,5.418,0.199l-4.001-4.001
		C9.783,12.474,9.029,12.387,8.507,11.938z M16.702,13.119l-3.036-3.037c-0.233-0.23-0.615-0.23-0.848,0.003h-0.002l-0.667,0.666
		l-0.615,0.618c-0.076,0.076-0.159,0.143-0.247,0.205l3.896,3.898c0.504-0.505,1.007-1.007,1.512-1.51
		C16.93,13.729,16.935,13.352,16.702,13.119z"/>
	</symbol>

        <symbol viewBox="0 0 56.966 56.966" id="svg-search">
        <path d="M55.146,51.887L41.588,37.786c3.486-4.144,5.396-9.358,5.396-14.786c0-12.682-10.318-23-23-23s-23,10.318-23,23
                s10.318,23,23,23c4.761,0,9.298-1.436,13.177-4.162l13.661,14.208c0.571,0.593,1.339,0.92,2.162,0.92
                c0.779,0,1.518-0.297,2.079-0.837C56.255,54.982,56.293,53.08,55.146,51.887z M23.984,6c9.374,0,17,7.626,17,17s-7.626,17-17,17
                s-17-7.626-17-17S14.61,6,23.984,6z"/>
	</symbol>

        <symbol viewBox="0 0 484.5 484.5" id="svg-enter-arrow">
        <polygon points="433.5,114.75 433.5,216.75 96.9,216.75 188.7,124.95 153,89.25 0,242.25 153,395.25 188.7,359.55 96.9,267.75 
                484.5,267.75 484.5,114.75"/>
	</symbol>

        <symbol viewBox="0 0 95.939 95.939" id="svg-close-button">
        <path d="M62.819,47.97l32.533-32.534c0.781-0.781,0.781-2.047,0-2.828L83.333,0.586C82.958,0.211,82.448,0,81.919,0
                c-0.53,0-1.039,0.211-1.414,0.586L47.97,33.121L15.435,0.586c-0.75-0.75-2.078-0.75-2.828,0L0.587,12.608
                c-0.781,0.781-0.781,2.047,0,2.828L33.121,47.97L0.587,80.504c-0.781,0.781-0.781,2.047,0,2.828l12.02,12.021
                c0.375,0.375,0.884,0.586,1.414,0.586c0.53,0,1.039-0.211,1.414-0.586L47.97,62.818l32.535,32.535
                c0.375,0.375,0.884,0.586,1.414,0.586c0.529,0,1.039-0.211,1.414-0.586l12.02-12.021c0.781-0.781,0.781-2.048,0-2.828L62.819,47.97
                z"/>
	</symbol>

        <symbol viewBox="0 0 342.357 342.357" id="svg-check">
        <polygon points="290.04,33.286 118.861,204.427 52.32,137.907 0,190.226 118.862,309.071 342.357,85.606 "/>
	</symbol>

        <symbol viewBox="0 0 70 70" id="svg-check2">
        <path d="M26.474,70c-2.176,0-4.234-1.018-5.557-2.764L3.049,43.639C0.725,40.57,1.33,36.2,4.399,33.875
                c3.074-2.326,7.441-1.717,9.766,1.35l11.752,15.518L55.474,3.285c2.035-3.265,6.332-4.264,9.604-2.232
                c3.268,2.034,4.266,6.334,2.23,9.602l-34.916,56.06c-1.213,1.949-3.307,3.175-5.6,3.279C26.685,69.998,26.58,70,26.474,70z"/>
	</symbol>

        <symbol viewBox="0 0 365.449 365.449" id="svg-mobile-phone">
        <path d="M281.507,10.85C274.279,3.614,265.71,0,255.813,0H109.637c-9.9,0-18.464,3.617-25.697,10.85
		c-7.233,7.229-10.85,15.796-10.85,25.693v292.361c0,9.896,3.617,18.462,10.85,25.693c7.233,7.234,15.797,10.852,25.697,10.852
		h146.176c9.896,0,18.466-3.621,25.693-10.852c7.234-7.231,10.852-15.797,10.852-25.693V36.543
		C292.358,26.646,288.745,18.083,281.507,10.85z M159.885,36.543h45.685c3.046,0,4.565,1.523,4.565,4.569
		c0,3.045-1.52,4.57-4.565,4.57h-45.685c-3.045,0-4.568-1.525-4.568-4.57C155.316,38.066,156.839,36.543,159.885,36.543z
		 M198.861,345.036c-4.476,4.469-9.852,6.707-16.135,6.707c-6.28,0-11.656-2.238-16.13-6.707c-4.474-4.477-6.711-9.856-6.711-16.132
		c0-6.283,2.24-11.66,6.711-16.133c4.471-4.469,9.851-6.714,16.13-6.714c6.284,0,11.66,2.245,16.135,6.714
		c4.473,4.473,6.708,9.85,6.708,16.133S203.331,340.56,198.861,345.036z M264.954,283.225c0,2.471-0.903,4.62-2.714,6.424
		c-1.813,1.807-3.949,2.707-6.42,2.707H109.637c-2.474,0-4.615-0.903-6.423-2.707s-2.712-3.953-2.712-6.424V82.229
		c0-2.474,0.903-4.617,2.712-6.423c1.809-1.805,3.949-2.714,6.423-2.714h146.176c2.478,0,4.616,0.905,6.427,2.714
		c1.811,1.807,2.71,3.949,2.71,6.423v200.995H264.954z"/>
	</symbol>

        <symbol viewBox="0 0 14.969 11" id="svg-dialog">
        <path d="M5.9,0C9.178,0,10.98,1.877,10.98,4.233s-1.8,3.91-5.079,3.91a8.273,8.273,0,0,1-1.167-.082A4.847,4.847,0,0,1,.964,9.872c1.7-.8,1.49-2.153,1.187-2.331A3.953,3.953,0,0,1-.035,4.233C-0.035,1.877,2.622,0,5.9,0ZM6.889,9.05a2.735,2.735,0,0,0,2.286.888,8.186,8.186,0,0,0,1.167-.165,3.735,        3.735,0,0,0,4.02,1.032c-1.7-.8-1.74-1.731-1.438-1.909a3.8,3.8,0,0,0,2.05-3.308,4.169,4.169,0,0,0-3.631-4.108C13.089,4.991,11.959,9.082,6.889,9.05Z"></path>
	</symbol>

        <symbol viewBox="0 0 13 13" id="svg-star">
        <path d="M6.5,0A0.527,0.527,0,0,0,6,.4L4.718,4.522H0.52A0.549,0.549,0,0,0,0,5.09a0.56,0.56,0,0,0,.225.452c0.084,0.06,3.391,2.58,3.391,2.58s-1.27,4.07-1.295,4.135a0.639,0.639,0,0,0-.032.192A0.538,0.538,0,0,0,2.814,13a0.514,0.514,0,0,0,.3-0.1L6.5,10.329S9.81,12.845,9.886,12.9a0.513,0.513,0,0,     0,.3.1,0.54,0.54,0,0,0,.526-0.551,0.631,0.631,0,0,0-.033-0.192c-0.024-.065-1.295-4.135-1.295-4.135s3.307-2.521,3.391-2.58A0.562,0.562,0,0,0,13,5.087a0.544,0.544,0,0,0-.515-0.565h-4.2L7,0.4A0.527,0.527,0,0,0,6.5,0Z"></path>
	</symbol>

        <symbol viewBox="0 0 14 14" id="svg-profil-2">
        <path d="M6.354,0.024c-0.487,0-.061.159-0.323,0.2a0.733,0.733,0,0,1-.441.12C4.8,0.5,4.643,1.579,4.605,1.977A6.221,6.221,0,0,0,4.584,3.1a0.289,0.289,0,0,1-.3.359C3.808,3.425,3.728,4.988,3.728,4.988a0.815,0.815,0,0,0,.673.875A3.018,3.018,0,0,0,5.579,7.38s0.042,0.646.055,1.106C5.563,8.449,5.511,9.663,3.344,10a4.039,4.039,0,0,0-2.991,1.5c-0.408.416-.378,2.336-0.378,2.336H13.931a5.994,5.994,0,0,0-.5-2.336A4.133,4.133,0,0,0,10.413,10C8.246,9.663,8.4,8.482,8.381,8.41c0-.182.08-0.95,0.08-0.95a4.073,4.073,0,0,0,1.03-1.626A1.284,1.284,0,0,0,10.3,5.028S10.534,3.5,9.973,3.5c0,0-.643.04-0.568-0.319A2.321,2.321,0,0,0,9.417,2.3c-0.037-.4.189-1.538-0.6-1.7a1.632,1.632,0,0,0-.627.015C7.93,0.575,7.618-.148,7.131-0.148Z"></path>
	</symbol>

        <symbol viewBox="0 0 357 357" id="svg-plus">
        <path d="M357,204H204v153h-51V204H0v-51h153V0h51v153h153V204z"/>
	</symbol>

        <symbol viewBox="0 0 472 472" id="svg-minus">
        <rect y="196" width="472" height="68"/>
	</symbol>

        <symbol viewBox="0 0 395 395" id="svg-email">
        <polygon points="395,320.089 395,74.911 258.806,197.5 	"/>
	<polygon points="197.5,252.682 158.616,217.682 22.421,340.271 372.579,340.271 236.384,217.682 	"/>
	<polygon points="372.579,54.729 22.421,54.729 197.5,212.318 	"/>
	<polygon points="0,74.911 0,320.089 136.194,197.5 	"/>
	</symbol>

        <symbol viewBox="0 0 96.124 96.123" id="svg-social-fb">
        <path d="M72.089,0.02L59.624,0C45.62,0,36.57,9.285,36.57,23.656v10.907H24.037c-1.083,0-1.96,0.878-1.96,1.961v15.803
		c0,1.083,0.878,1.96,1.96,1.96h12.533v39.876c0,1.083,0.877,1.96,1.96,1.96h16.352c1.083,0,1.96-0.878,1.96-1.96V54.287h14.654
		c1.083,0,1.96-0.877,1.96-1.96l0.006-15.803c0-0.52-0.207-1.018-0.574-1.386c-0.367-0.368-0.867-0.575-1.387-0.575H56.842v-9.246
		c0-4.444,1.059-6.7,6.848-6.7l8.397-0.003c1.082,0,1.959-0.878,1.959-1.96V1.98C74.046,0.899,73.17,0.022,72.089,0.02z"/>
	</symbol>

        <symbol viewBox="0 0 548.358 548.358" id="svg-social-vk">
        <path d="M545.451,400.298c-0.664-1.431-1.283-2.618-1.858-3.569c-9.514-17.135-27.695-38.167-54.532-63.102l-0.567-0.571
		l-0.284-0.28l-0.287-0.287h-0.288c-12.18-11.611-19.893-19.418-23.123-23.415c-5.91-7.614-7.234-15.321-4.004-23.13
		c2.282-5.9,10.854-18.36,25.696-37.397c7.807-10.089,13.99-18.175,18.556-24.267c32.931-43.78,47.208-71.756,42.828-83.939
		l-1.701-2.847c-1.143-1.714-4.093-3.282-8.846-4.712c-4.764-1.427-10.853-1.663-18.278-0.712l-82.224,0.568
		c-1.332-0.472-3.234-0.428-5.712,0.144c-2.475,0.572-3.713,0.859-3.713,0.859l-1.431,0.715l-1.136,0.859
		c-0.952,0.568-1.999,1.567-3.142,2.995c-1.137,1.423-2.088,3.093-2.848,4.996c-8.952,23.031-19.13,44.444-30.553,64.238
		c-7.043,11.803-13.511,22.032-19.418,30.693c-5.899,8.658-10.848,15.037-14.842,19.126c-4,4.093-7.61,7.372-10.852,9.849
		c-3.237,2.478-5.708,3.525-7.419,3.142c-1.715-0.383-3.33-0.763-4.859-1.143c-2.663-1.714-4.805-4.045-6.42-6.995
		c-1.622-2.95-2.714-6.663-3.285-11.136c-0.568-4.476-0.904-8.326-1-11.563c-0.089-3.233-0.048-7.806,0.145-13.706
		c0.198-5.903,0.287-9.897,0.287-11.991c0-7.234,0.141-15.085,0.424-23.555c0.288-8.47,0.521-15.181,0.716-20.125
		c0.194-4.949,0.284-10.185,0.284-15.705s-0.336-9.849-1-12.991c-0.656-3.138-1.663-6.184-2.99-9.137
		c-1.335-2.95-3.289-5.232-5.853-6.852c-2.569-1.618-5.763-2.902-9.564-3.856c-10.089-2.283-22.936-3.518-38.547-3.71
		c-35.401-0.38-58.148,1.906-68.236,6.855c-3.997,2.091-7.614,4.948-10.848,8.562c-3.427,4.189-3.905,6.475-1.431,6.851
		c11.422,1.711,19.508,5.804,24.267,12.275l1.715,3.429c1.334,2.474,2.666,6.854,3.999,13.134c1.331,6.28,2.19,13.227,2.568,20.837
		c0.95,13.897,0.95,25.793,0,35.689c-0.953,9.9-1.853,17.607-2.712,23.127c-0.859,5.52-2.143,9.993-3.855,13.418
		c-1.715,3.426-2.856,5.52-3.428,6.28c-0.571,0.76-1.047,1.239-1.425,1.427c-2.474,0.948-5.047,1.431-7.71,1.431
		c-2.667,0-5.901-1.334-9.707-4c-3.805-2.666-7.754-6.328-11.847-10.992c-4.093-4.665-8.709-11.184-13.85-19.558
		c-5.137-8.374-10.467-18.271-15.987-29.691l-4.567-8.282c-2.855-5.328-6.755-13.086-11.704-23.267
		c-4.952-10.185-9.329-20.037-13.134-29.554c-1.521-3.997-3.806-7.04-6.851-9.134l-1.429-0.859c-0.95-0.76-2.475-1.567-4.567-2.427
		c-2.095-0.859-4.281-1.475-6.567-1.854l-78.229,0.568c-7.994,0-13.418,1.811-16.274,5.428l-1.143,1.711
		C0.288,140.146,0,141.668,0,143.763c0,2.094,0.571,4.664,1.714,7.707c11.42,26.84,23.839,52.725,37.257,77.659
		c13.418,24.934,25.078,45.019,34.973,60.237c9.897,15.229,19.985,29.602,30.264,43.112c10.279,13.515,17.083,22.176,20.412,25.981
		c3.333,3.812,5.951,6.662,7.854,8.565l7.139,6.851c4.568,4.569,11.276,10.041,20.127,16.416
		c8.853,6.379,18.654,12.659,29.408,18.85c10.756,6.181,23.269,11.225,37.546,15.126c14.275,3.905,28.169,5.472,41.684,4.716h32.834
		c6.659-0.575,11.704-2.669,15.133-6.283l1.136-1.431c0.764-1.136,1.479-2.901,2.139-5.276c0.668-2.379,1-5,1-7.851
		c-0.195-8.183,0.428-15.558,1.852-22.124c1.423-6.564,3.045-11.513,4.859-14.846c1.813-3.33,3.859-6.14,6.136-8.418
		c2.282-2.283,3.908-3.666,4.862-4.142c0.948-0.479,1.705-0.804,2.276-0.999c4.568-1.522,9.944-0.048,16.136,4.429
		c6.187,4.473,11.99,9.996,17.418,16.56c5.425,6.57,11.943,13.941,19.555,22.124c7.617,8.186,14.277,14.271,19.985,18.274
		l5.708,3.426c3.812,2.286,8.761,4.38,14.853,6.283c6.081,1.902,11.409,2.378,15.984,1.427l73.087-1.14
		c7.229,0,12.854-1.197,16.844-3.572c3.998-2.379,6.373-5,7.139-7.851c0.764-2.854,0.805-6.092,0.145-9.712
		C546.782,404.25,546.115,401.725,545.451,400.298z"/>
	</symbol>
        
        <symbol viewBox="0 0 612 612" id="svg-social-tw">
        <path d="M612,116.258c-22.525,9.981-46.694,16.75-72.088,19.772c25.929-15.527,45.777-40.155,55.184-69.411
                c-24.322,14.379-51.169,24.82-79.775,30.48c-22.907-24.437-55.49-39.658-91.63-39.658c-69.334,0-125.551,56.217-125.551,125.513
                c0,9.828,1.109,19.427,3.251,28.606C197.065,206.32,104.556,156.337,42.641,80.386c-10.823,18.51-16.98,40.078-16.98,63.101
                c0,43.559,22.181,81.993,55.835,104.479c-20.575-0.688-39.926-6.348-56.867-15.756v1.568c0,60.806,43.291,111.554,100.693,123.104
                c-10.517,2.83-21.607,4.398-33.08,4.398c-8.107,0-15.947-0.803-23.634-2.333c15.985,49.907,62.336,86.199,117.253,87.194
                c-42.947,33.654-97.099,53.655-155.916,53.655c-10.134,0-20.116-0.612-29.944-1.721c55.567,35.681,121.536,56.485,192.438,56.485
                c230.948,0,357.188-191.291,357.188-357.188l-0.421-16.253C573.872,163.526,595.211,141.422,612,116.258z"/>
	</symbol>

        <symbol viewBox="0 0 22.354 22.354" id="svg-equal">
        <rect y="3.78" width="22.354" height="5.132"/>
        <rect y="13.441" width="22.354" height="5.133"/>
	</symbol>
        
        <symbol viewBox="0 0 231 231" id="svg-view-gallery">
        <rect width="181" x="50" y="164.5" height="33"/>
        <rect width="181" x="50" y="99.5" height="33"/>
        <rect width="181" x="50" y="32.5" height="33"/>
        <rect width="33" y="165.5" height="33"/>
        <rect width="33" y="99.5" height="33"/>
        <rect width="33" y="32.5" height="33"/>
	</symbol>

        <symbol viewBox="0 0 459 459" id="svg-view-table">
        <path d="M0,382.5h459v-51H0V382.5z M0,255h459v-51H0V255z M0,76.5v51h459v-51H0z"/>
	</symbol>
        
        <symbol viewBox="0 0 16 16" id="svg-view-showcase">
        <path d="M0 0h7v7h-7v-7z"></path>
        <path d="M9 0h7v7h-7v-7z"></path>
        <path d="M0 9h7v7h-7v-7z"></path>
        <path d="M9 9h7v7h-7v-7z"></path>
	</symbol>
        
        <symbol viewBox="0 0 60 60" id="svg-file">
        <path d="M42.5,22h-25c-0.552,0-1,0.447-1,1s0.448,1,1,1h25c0.552,0,1-0.447,1-1S43.052,22,42.5,22z"/>
	<path d="M17.5,16h10c0.552,0,1-0.447,1-1s-0.448-1-1-1h-10c-0.552,0-1,0.447-1,1S16.948,16,17.5,16z"/>
	<path d="M42.5,30h-25c-0.552,0-1,0.447-1,1s0.448,1,1,1h25c0.552,0,1-0.447,1-1S43.052,30,42.5,30z"/>
	<path d="M42.5,38h-25c-0.552,0-1,0.447-1,1s0.448,1,1,1h25c0.552,0,1-0.447,1-1S43.052,38,42.5,38z"/>
	<path d="M42.5,46h-25c-0.552,0-1,0.447-1,1s0.448,1,1,1h25c0.552,0,1-0.447,1-1S43.052,46,42.5,46z"/>
	<path d="M38.914,0H6.5v60h47V14.586L38.914,0z M39.5,3.414L50.086,14H39.5V3.414z M8.5,58V2h29v14h14v42H8.5z"/>
	</symbol>

        <symbol viewBox="0 0 1000 1000" id="svg-pig">
        <path d="M981.8,316.4c-8.4-5.6-19.9-3.3-25.5,5.1c-9.6,14.4-22.8,20.6-34.2,23.2c-0.1-21.4-10.5-43.8-29.5-62.8c-18.1-18.1-44.5-21.8-62.6-8.7c-13.6,9.8-24.3,31.5-9.7,60.6c9,18.1,25.7,32.6,46.1,41c-3.9,2.7-8.3,5.3-13.3,7.8c-11,5.5-22.3,8.8-33.2,10.7c-52.7-107.6-189.9-184.3-350.9-184.3c-32.2,0-61.8,2.1-89.4,5.7C333.4,185,248,148.2,162.4,153.9c3.9,35.6,25.8,81.2,53.9,114.2c-54.5,33.7-89.6,79.6-107.3,132.8c-20.7,9.1-43.1,14.9-68.1,16.6c-18.3,1.2-32.1,16.9-30.8,35.2c3.4,47.2,17.3,127.5,72.7,148.7c10.4,4,26.9,6.3,46.6,7.6c23.4,38.3,57.8,72,100.3,98.7c-7.1,35.5-15.9,71.3-26.7,107.5c-4.7,15.6,7.2,31.4,23.5,31.4h103c10.2,0,19.5-6.2,23-15.8c8.1-21.9,15-44.3,20.8-67.1c30.6,6.1,62.6,9.4,95.7,9.4c38.5,0,75.6-4.4,110.5-12.5c-4.5,18.2-9.4,36.4-14.9,54.7c-4.7,15.6,7.1,31.4,23.5,31.4h103c10.2,0,19.5-6.2,23-15.8c18.4-49.6,30.5-101.7,37.9-155.7c56.5-49.4,90.8-113.7,90.8-184.1c0-21.6-3.3-42.6-9.4-62.8c11.8-2.6,24-6.6,36-12.7c19.9-10,32.5-21.4,40.3-32.5c31.7-0.7,60.1-15.6,77.1-41.1C992.5,333.5,990.3,322.1,981.8,316.4z M248.3,405.3c-16.9,0-30.7-13.7-30.7-30.7c0-16.9,13.7-30.7,30.7-30.7c16.9,0,30.7,13.7,30.7,30.7C278.9,391.6,265.2,405.3,248.3,405.3z M569.5,440.1c-12.8,4.3-26.7-2.6-31-15.5c-3.2-9.4-15-20.4-38.1-20.4c-17.9,0-28.5,11.6-29.6,23.1c-1.5,14.3,11.5,25.7,34.7,30.6c55.5,11.6,76.8,50.4,73.4,83.6c-3.1,30.2-24.9,54.5-53.9,63.3v15c0,13.5-11,24.5-24.5,24.5c-13.5,0-24.5-11-24.5-24.5v-14.2c-33.6-7.8-53.2-30.6-60-50.9c-4.3-12.8,2.6-26.8,15.5-31c12.8-4.3,26.7,2.6,31,15.5c3.4,10.2,16.5,20.4,38,20.4c17.9,0,28.5-11.6,29.6-23.1c1.5-14.3-11.5-25.7-34.7-30.6c-55.5-11.6-76.8-50.4-73.4-83.6c3.1-30.2,24.9-54.5,53.9-63.3v-15c0-13.5,11-24.5,24.5-24.5c13.5,0,24.5,11,24.5,24.5v14.2c33.6,7.8,53.2,30.6,60,50.9C589.3,422,582.3,435.8,569.5,440.1z M853.2,317.4c-3.7-7.5-3.7-12.8-1.7-14.3c0.8-0.6,2-0.9,3.5-0.9c3.1,0,7.4,1.5,11.6,5.8c11.1,11.2,17.8,23.7,18.6,34.7C870.8,337.9,858.9,328.7,853.2,317.4z"></path>
	</symbol>
        
        <symbol viewBox="0 0 26 26" id="svg-close-button2">
        <path d="M21.125,0H4.875C2.182,0,0,2.182,0,4.875v16.25C0,23.818,2.182,26,4.875,26h16.25
		C23.818,26,26,23.818,26,21.125V4.875C26,2.182,23.818,0,21.125,0z M18.78,17.394l-1.388,1.387c-0.254,0.255-0.67,0.255-0.924,0
		L13,15.313L9.533,18.78c-0.255,0.255-0.67,0.255-0.925-0.002L7.22,17.394c-0.253-0.256-0.253-0.669,0-0.926l3.468-3.467
		L7.221,9.534c-0.254-0.256-0.254-0.672,0-0.925l1.388-1.388c0.255-0.257,0.671-0.257,0.925,0L13,10.689l3.468-3.468
		c0.255-0.257,0.671-0.257,0.924,0l1.388,1.386c0.254,0.255,0.254,0.671,0.001,0.927l-3.468,3.467l3.468,3.467
		C19.033,16.725,19.033,17.138,18.78,17.394z"/>
	</symbol>

        <symbol viewBox="0 0 492.719 492.719" id="svg-heart">
        <path d="M492.719,166.008c0-73.486-59.573-133.056-133.059-133.056c-47.985,0-89.891,25.484-113.302,63.569
                c-23.408-38.085-65.332-63.569-113.316-63.569C59.556,32.952,0,92.522,0,166.008c0,40.009,17.729,75.803,45.671,100.178
                l188.545,188.553c3.22,3.22,7.587,5.029,12.142,5.029c4.555,0,8.922-1.809,12.142-5.029l188.545-188.553
                C474.988,241.811,492.719,206.017,492.719,166.008z"/>
	</symbol>
        
        <symbol viewBox="0 0 97.16 97.16" id="svg-clock">
        <path d="M48.58,0C21.793,0,0,21.793,0,48.58s21.793,48.58,48.58,48.58s48.58-21.793,48.58-48.58S75.367,0,48.58,0z M48.58,86.823
                c-21.087,0-38.244-17.155-38.244-38.243S27.493,10.337,48.58,10.337S86.824,27.492,86.824,48.58S69.667,86.823,48.58,86.823z"/>
        <path d="M73.898,47.08H52.066V20.83c0-2.209-1.791-4-4-4c-2.209,0-4,1.791-4,4v30.25c0,2.209,1.791,4,4,4h25.832
                c2.209,0,4-1.791,4-4S76.107,47.08,73.898,47.08z"/>
	</symbol>
        
        <symbol viewBox="0 0 60 60" id="svg-favorite-list">
        <path d="M36.5,22h-25c-0.553,0-1,0.448-1,1s0.447,1,1,1h25c0.553,0,1-0.448,1-1S37.053,22,36.5,22z"/>
	<path d="M11.5,16h10c0.553,0,1-0.448,1-1s-0.447-1-1-1h-10c-0.553,0-1,0.448-1,1S10.948,16,11.5,16z"/>
	<path d="M37.5,31c0-0.552-0.447-1-1-1h-25c-0.553,0-1,0.448-1,1s0.447,1,1,1h25C37.053,32,37.5,31.552,37.5,31z"/>
	<path d="M29.5,39c0-0.552-0.447-1-1-1h-17c-0.553,0-1,0.448-1,1s0.447,1,1,1h17C29.053,40,29.5,39.552,29.5,39z"/>
	<path d="M11.5,46c-0.553,0-1,0.448-1,1s0.447,1,1,1h14c0.553,0,1-0.448,1-1s-0.447-1-1-1H11.5z"/>
	<path d="M2.5,2h29v14h14v17h2V14.586L32.914,0H0.5v60h37v-2h-35V2z M33.5,3.414L44.086,14H33.5V3.414z"/>
	<path d="M59.454,42.052C59.055,37.963,56.003,35,52.184,35c-2.396,0-4.407,1.449-5.684,3.212C45.224,36.449,43.212,35,40.817,35
		c-3.819,0-6.871,2.963-7.271,7.052c-0.042,0.267-0.144,1.22,0.226,2.709c0.546,2.198,1.801,4.193,3.631,5.77l9.098,7.786l9.1-7.788
		c1.828-1.575,3.083-3.569,3.629-5.767C59.598,43.272,59.496,42.319,59.454,42.052z M57.287,44.28
		c-0.445,1.793-1.479,3.431-2.99,4.732L46.5,55.684l-7.795-6.67c-1.513-1.304-2.547-2.941-2.992-4.735
		c-0.302-1.214-0.194-1.898-0.194-1.898l0.016-0.105C35.78,39.654,37.672,37,40.817,37c2.189,0,3.974,1.811,4.77,3.606l0.914,2.06
		l0.914-2.06C48.21,38.811,49.995,37,52.184,37c3.145,0,5.037,2.654,5.295,5.366C57.481,42.373,57.591,43.058,57.287,44.28z"/>
	</symbol>
        
        <symbol viewBox="0 0 64 64" id="svg-cart-3">
        <path d="M62.534359,20.2339001c-0.4531021-0.6221008-1.180584-0.9937-1.9462013-0.9937H23.5138588c-0.5527,0-1,0.4477997-1,1
		c0,0.5522995,0.4473,1,1,1h37.0742989c0.1298027,0,0.25,0.0620003,0.3300018,0.1709003
		c0.0800972,0.1103992,0.1035004,0.2544003,0.0625,0.3876991l-5.5615005,18.0000019
		C55.1965599,40.517601,54.5509605,41,53.8126602,41H21.6662598c-0.8213005,0-1.5293007-0.5684013-1.7227001-1.3809013
		L12.6056595,8.6968002C12.3703594,7.6978002,11.4924593,7,10.4709597,7H2.0002599C1.4474601,7,1.00026,7.4478002,1.00026,8
		s0.4472001,1,0.9999999,1h8.4706993c0.0879002,0,0.1669998,0.0654001,0.1884003,0.1571999l7.3389006,30.9229012
		C18.4054604,41.7998009,19.914259,43,21.6662598,43h32.1464005c1.6211967,0,3.0341988-1.0488014,3.5166969-2.6104012
		l5.5615005-17.9994984C63.1183586,21.6581993,62.9845581,20.8516006,62.534359,20.2339001z"/>
	<path d="M29.5793591,33c-0.5527992,0-1,0.4473-1,1s0.4472008,1,1,1h20.8417988c0.5527,0,1-0.4473,1-1s-0.4473-1-1-1H29.5793591z"/>
	<path d="M53.5050583,28c0-0.5522003-0.4472008-1-1-1H27.4953594c-0.5527992,0-1,0.4477997-1,1s0.4472008,1,1,1h25.0096989
		C53.0578575,29,53.5050583,28.5522003,53.5050583,28z"/>
	<path d="M30.0002594,47c-2.7569008,0-5,2.2431984-5,5s2.2430992,5,5,5c2.7568016,0,5-2.2431984,5-5S32.757061,47,30.0002594,47z
		 M30.0002594,55c-1.6543007,0-3-1.3456993-3-3s1.3456993-3,3-3s3,1.3456993,3,3S31.6545601,55,30.0002594,55z"/>
	<path d="M46.0002594,47c-2.7569008,0-5,2.2431984-5,5s2.2430992,5,5,5c2.7567978,0,5-2.2431984,5-5S48.7570572,47,46.0002594,47z
		 M46.0002594,55c-1.6543007,0-3-1.3456993-3-3s1.3456993-3,3-3s3,1.3456993,3,3S47.6545601,55,46.0002594,55z"/>
	</symbol>
        
        <symbol viewBox="0 0 32 32" id="svg-menu">
        <rect width="32" height="4"/>
        <rect y="14" width="32" height="4"/>
        <rect y="28" width="32" height="4"/>
	</symbol>
        
        <symbol viewBox="0 0 121.805 121.805" id="svg-compare">
        <path d="M121.805,109.623V21.926c0-2.692-2.181-4.873-4.871-4.873H92.572c-2.691,0-4.871,2.181-4.871,4.873v87.697
                c0,2.693,2.18,4.873,4.871,4.873h24.361C119.624,114.496,121.805,112.316,121.805,109.623z"/>
        <path d="M46.287,114.496h26.797c2.691,0,4.872-2.18,4.872-4.873V12.181c0-2.692-2.181-4.872-4.872-4.872H46.287
                c-2.692,0-4.873,2.18-4.873,4.872v97.442C41.414,112.316,43.594,114.496,46.287,114.496z"/>
        <path d="M4.872,46.286C2.18,46.286,0,48.466,0,51.158v58.465c0,2.693,2.18,4.873,4.872,4.873h24.361
                c2.692,0,4.872-2.18,4.872-4.873V51.158c0-2.692-2.18-4.872-4.872-4.872H4.872z"/>
	</symbol>
        
        <symbol viewBox="0 0 45.412 45.413" id="svg-heart-2">
        <path d="M45.412,16.024c0-6.918-5.668-12.547-12.635-12.547c-4.103,0-7.754,1.951-10.063,4.969
                c-2.311-3.018-5.965-4.969-10.07-4.969C5.672,3.477,0,9.105,0,16.024c0,10.422,14.892,25.911,22.715,25.911
                c1.185,0,2.531-0.358,3.965-0.998c0,0-5.476-4.086-7.683-5.672C13.625,31.402,5.143,22.639,5.143,16.024
                c0-4.082,3.365-7.403,7.5-7.403c4.135,0,7.5,3.321,7.5,7.403c0,1.42,1.151,2.572,2.572,2.572c1.42,0,2.57-1.152,2.57-2.572
                c0-4.082,3.361-7.403,7.492-7.403s7.492,3.321,7.492,7.403c0,6.723-8.544,15.977-14.113,19.411l4.394,3.244
                C37.761,33.575,45.412,23.497,45.412,16.024z"/>
	</symbol>
        
        <symbol viewBox="0 0 92 92" id="svg-question">
        <path d="M45.386,0.004C19.983,0.344-0.333,21.215,0.005,46.619c0.34,25.393,21.209,45.715,46.611,45.377
		c25.398-0.342,45.718-21.213,45.38-46.615C91.656,19.986,70.786-0.335,45.386,0.004z M45.25,74l-0.254-0.004
		c-3.912-0.116-6.67-2.998-6.559-6.852c0.109-3.788,2.934-6.538,6.717-6.538l0.227,0.004c4.021,0.119,6.748,2.972,6.635,6.937
		C51.904,71.346,49.123,74,45.25,74z M61.705,41.341c-0.92,1.307-2.943,2.93-5.492,4.916l-2.807,1.938
		c-1.541,1.198-2.471,2.325-2.82,3.434c-0.275,0.873-0.41,1.104-0.434,2.88l-0.004,0.451H39.43l0.031-0.907
		c0.131-3.728,0.223-5.921,1.768-7.733c2.424-2.846,7.771-6.289,7.998-6.435c0.766-0.577,1.412-1.234,1.893-1.936
		c1.125-1.551,1.623-2.772,1.623-3.972c0-1.665-0.494-3.205-1.471-4.576c-0.939-1.323-2.723-1.993-5.303-1.993
		c-2.559,0-4.311,0.812-5.359,2.478c-1.078,1.713-1.623,3.512-1.623,5.35v0.457H27.936l0.02-0.477
		c0.285-6.769,2.701-11.643,7.178-14.487C37.947,18.918,41.447,18,45.531,18c5.346,0,9.859,1.299,13.412,3.861
		c3.6,2.596,5.426,6.484,5.426,11.556C64.369,36.254,63.473,38.919,61.705,41.341z"/>
	</symbol>
        
        <symbol viewBox="0 0 459 459" id="svg-sorting">
        <path d="M0,382.5h153v-51H0V382.5z M0,76.5v51h459v-51H0z M0,255h306v-51H0V255z"/>
	</symbol>

        <symbol viewBox="0 0 60 60" id="svg-more" xmlns="http://www.w3.org/2000/svg">
        <path d="M8 22c-4.411 0-8 3.589-8 8s3.589 8 8 8 8-3.589 8-8-3.589-8-8-8zm44 0c-4.411 0-8 3.589-8 8s3.589 8 8 8 8-3.589 
                8-8-3.589-8-8-8zm-22 0c-4.411 0-8 3.589-8 8s3.589 8 8 8 8-3.589 8-8-3.589-8-8-8z"></path></symbol>

        <!-- version 4.0.0 icons -->
        <symbol viewBox="0 0 16 16" id="svg-4x-autodetect" xmlns="http://www.w3.org/2000/svg">
        <path d="M0.614,6H9v8.418L14,1Zm5.125-.968L10,5V8.94L12.422,2.61Z"/>
        </symbol>

        <symbol viewBox="0 0 16 16" id="svg-4x-profil" xmlns="http://www.w3.org/2000/svg">
        <path d="M16,15s-1.039-4-8-4c-6.9,0-8,4-8,4H1.229S2.934,11.961,8,12c4.94,0.038,6.8,3,6.8,3H16ZM8,0A5,5,0,1,1,3,5,5,5,0,0,1,8,0ZM8,1A4,4,0,1,1,4,5,4,4,0,0,1,8,1Z"/>
        </symbol>

        <symbol viewBox="0 0 16 16" id="svg-4x-compare" xmlns="http://www.w3.org/2000/svg">
        <path d="M2,4h9V16H2V4ZM3,5h7V15H3V5Z"/>
        <path d="M4,4H5V1h8V12H11v1h3V0H4V4Z"/>
        </symbol>

        <symbol viewBox="0 0 16 16" id="svg-4x-compare-small" xmlns="http://www.w3.org/2000/svg">
        <path d="M14,2H5V4H2V14h9V12h3ZM10,13H3V5h7v8Zm3-2H11V4H6V3h7Z"/>
        </symbol>

        <symbol viewBox="0 0 16 16" id="svg-4x-favorite" xmlns="http://www.w3.org/2000/svg">
        <path d="M3,1H13V16.25L8,12.125,3,16.25V1ZM4,2h8V14L8,10.656,4,14V2Z"/>
        </symbol>

        <symbol viewBox="0 0 16 15" id="svg-4x-favorite-small" xmlns="http://www.w3.org/2000/svg">
        <path d="M3,2H13V14.25L8,10.13,3,14.25Z"/>
        </symbol>

        <symbol viewBox="0 0 16 16" id="svg-4x-favorite-small-old" xmlns="http://www.w3.org/2000/svg">
        <path d="M3,2V15.25l5-4.12,5,4.12V2Zm9,11L8,9.66,4,13V3h8Z"/>
        </symbol>

        <symbol viewBox="0 0 16 16" id="svg-4x-cart" xmlns="http://www.w3.org/2000/svg">
        <path d="M0,0H3L3.75,4H16l-3,8H4L2,1H0M4,5H14.469l-2.156,6H4.938Z"/>
        <path d="M5.5,13A1.5,1.5,0,1,1,4,14.5,1.5,1.5,0,0,1,5.5,13Zm0,1a0.5,0.5,0,1,1-.5.5A0.5,0.5,0,0,1,5.5,14Z"/>
        <path d="M11.5,13A1.5,1.5,0,1,1,10,14.5,1.5,1.5,0,0,1,11.5,13Zm0,1a0.5,0.5,0,1,1-.5.5A0.5,0.5,0,0,1,11.5,14Z"/>
        </symbol>

        <symbol viewBox="0 0 16 16" id="svg-4x-location" xmlns="http://www.w3.org/2000/svg">
        <path d="M8,3a2,2,0,1,0,2,2A2,2,0,0,0,8,3ZM8,6A1,1,0,1,1,9,5,1,1,0,0,1,8,6Z"/>
        <path d="M13,3.29A5.44,5.44,0,0,0,11.81,1.6,5.83,5.83,0,0,0,10.09.46,5.25,5.25,0,0,0,6,.46,5.82,5.82,0,0,0,4.25,1.6,5.43,5.43,0,0,0,3.1,3.29a5.18,5.18,0,0,0-.42,2.09,5.43,5.43,0,0,0,0,.7,5.25,5.25,0,0,0,.14.7,6,6,0,0,0,.23.64A6.55,6.55,0,0,0,3.4,8L8,15.93,12.65,8a6.69,6.69,0,0,0,.3-.61,6,6,0,0,0,.23-.64,5.27,5.27,0,0,0,.14-.7,5.41,5.41,0,0,0,0-.7A5.18,5.18,0,0,0,13,3.29ZM12.48,6a4.3,4.3,0,0,1-.12.58,4.9,4.9,0,0,1-.2.53,5.49,5.49,0,0,1-.25.5L8,14.15,4.15,7.61A5.38,5.38,0,0,1,3.9,7.1a4.91,4.91,0,0,1-.2-.53A4.29,4.29,0,0,1,3.58,6a4.44,4.44,0,0,1,0-.58A4.24,4.24,0,0,1,3.9,3.68a4.49,4.49,0,0,1,1-1.4A4.89,4.89,0,0,1,6.3,1.34a4.47,4.47,0,0,1,3.46,0,4.9,4.9,0,0,1,1.44.94,4.5,4.5,0,0,1,1,1.4,4.24,4.24,0,0,1,.35,1.73A4.42,4.42,0,0,1,12.48,6Z"/>
        </symbol>

        <symbol viewBox="0 0 16 16" id="svg-4x-lock" xmlns="http://www.w3.org/2000/svg">
        <path class="cls-1" d="M8,0a4,4,0,0,1,4,4V7H4V4A4,4,0,0,1,8,0ZM8,1a3,3,0,0,1,3,3V7H5V4A3,3,0,0,1,8,1Z"/>
        <path class="cls-1" d="M2,7H14v9H2V7ZM3,8H13v7H3V8Z"/>
        </symbol>

        <symbol viewBox="0 0 16 16" id="svg-4x-arrow-back" xmlns="http://www.w3.org/2000/svg">
        <path d="M15.2,6.988H3.222l4.1-4.039a0.844,0.844,0,0,0-.156-1.3,0.727,0.727,0,0,0-1.211,0L0.526,7.294a0.831,0.831,0,0,0,0,1.3l5.43,5.645a0.78,0.78,0,0,0,.586.244,0.828,0.828,0,0,0,.625-0.244c0.416-.433.573-0.853,0.156-1.259l-4.1-3.986H15.2a0.713,0.713,0,0,0,.418-0.42,0.907,0.907,0,0,0,0-1.259A0.556,0.556,0,0,0,15.2,6.988h0Z"/>
        </symbol>

        <symbol viewBox="0 0 306 306" id="svg-4x-rating" xmlns="http://www.w3.org/2000/svg">
        <polygon points="153,230.775 247.35,299.625 211.65,187.425 306,121.125 191.25,121.125 153,6.375 114.75,121.125 0,121.125 
	94.35,187.425 58.65,299.625"/>
	</symbol>

        <symbol viewBox="0 0 16 16" id="svg-4x-stores-available" xmlns="http://www.w3.org/2000/svg">
        <path d="M8,1a7,7,0,1,0,7,7A7,7,0,0,0,8,1ZM8,14a6,6,0,1,1,6-6A6,6,0,0,1,8,14Z"/>
        <polygon points="6.96 10.85 4.58 7.28 5.42 6.72 7.04 9.15 10.61 4.69 11.39 5.31 6.96 10.85"/>
	</symbol>

        <symbol viewBox="0 0 16 16" id="svg-4x-stores-not-available" xmlns="http://www.w3.org/2000/svg">
        <path d="M8,1a7,7,0,1,0,7,7A7,7,0,0,0,8,1ZM8,14a6,6,0,1,1,6-6A6,6,0,0,1,8,14Z"/>
        <rect x="7" y="4" width="2" height="5"/>
        <rect x="7" y="10" width="2" height="2"/>
	</symbol>

</svg>
